<svg width="20" height="16" viewBox="0 0 20 16" fill="none" xmlns="http://www.w3.org/2000/svg">
<path d="M19.4112 1.43937C18.1991 0.909749 16.9859 0.708252 15.7734 0.708252C11.9244 0.707926 8.07562 2.73755 4.22656 2.73755C3.26125 2.73755 2.29656 2.60994 1.33125 2.29093C1.22281 2.25513 1.11406 2.2382 1.00781 2.2382C0.47 2.2382 0 2.67179 0 3.27368V13.6012C0 14.0123 0.225938 14.4019 0.58875 14.5601C1.80094 15.0901 3.01406 15.2916 4.22656 15.2916C8.07562 15.2916 11.9247 13.262 15.7738 13.262C16.7391 13.262 17.7037 13.3896 18.6691 13.7086C18.7775 13.7444 18.8862 13.7613 18.9925 13.7613C19.5303 13.7613 20.0003 13.3277 20.0003 12.7258V2.39868C20 1.98722 19.7741 1.5979 19.4112 1.43937ZM1.5 3.97062C2.12875 4.13468 2.785 4.21704 3.46 4.26131C3.27625 5.21802 2.46875 5.93905 1.5 5.93905V3.97062ZM1.5 13.248V11.6926C2.57406 11.6926 3.44313 12.5803 3.49094 13.6913C2.78688 13.6324 2.12875 13.4859 1.5 13.248ZM10 11.1249C8.61906 11.1249 7.5 9.7255 7.5 7.99992C7.5 6.27401 8.61938 4.87492 10 4.87492C11.3806 4.87492 12.5 6.27401 12.5 7.99992C12.5 9.72616 11.3803 11.1249 10 11.1249ZM18.5 12.0292C17.9525 11.8863 17.3841 11.8062 16.8025 11.7545C16.9859 10.9055 17.6619 10.261 18.5 10.1503V12.0292ZM18.5 4.34334C17.5347 4.21606 16.7856 3.37655 16.7559 2.33976C17.3666 2.4104 17.9463 2.54256 18.5 2.75187V4.34334Z" fill="#60FEEB"/>
</svg>
